<svg width="33" height="33" viewBox="0 0 33 33" fill="none" xmlns="http://www.w3.org/2000/svg">
<path d="M28.8021 11.4194C28.7882 10.378 28.5933 9.34694 28.226 8.37238C27.9075 7.55034 27.421 6.80377 26.7976 6.18039C26.1742 5.55701 25.4276 5.07052 24.6056 4.752C23.6436 4.39087 22.6272 4.1956 21.5998 4.1745C20.2771 4.11538 19.8577 4.09888 16.5 4.09888C13.1422 4.09888 12.7119 4.09888 11.3987 4.1745C10.3718 4.19575 9.35595 4.39102 8.39435 4.752C7.57218 5.0703 6.8255 5.55671 6.2021 6.18012C5.57869 6.80353 5.09227 7.55021 4.77397 8.37238C4.41212 9.33368 4.21727 10.3498 4.19785 11.3768C4.13872 12.7009 4.12085 13.1203 4.12085 16.478C4.12085 19.8358 4.12085 20.2648 4.19785 21.5793C4.21847 22.6078 4.41235 23.6225 4.77397 24.5864C5.09281 25.4083 5.57958 26.1547 6.2032 26.7778C6.82682 27.401 7.57356 27.8872 8.39572 28.2054C9.3547 28.581 10.3707 28.7903 11.4001 28.8241C12.7242 28.8832 13.1436 28.9011 16.5014 28.9011C19.8591 28.9011 20.2895 28.9011 21.6026 28.8241C22.6299 28.8039 23.6463 28.6091 24.6083 28.248C25.4302 27.9291 26.1765 27.4425 26.7999 26.8192C27.4232 26.1958 27.9098 25.4495 28.2287 24.6276C28.5904 23.6651 28.7842 22.6504 28.8048 21.6205C28.864 20.2978 28.8818 19.8784 28.8818 16.5193C28.8791 13.1615 28.8791 12.7353 28.8021 11.4194ZM16.4917 22.8278C12.98 22.8278 10.1351 19.9829 10.1351 16.4711C10.1351 12.9594 12.98 10.1145 16.4917 10.1145C18.1776 10.1145 19.7944 10.7842 20.9865 11.9763C22.1786 13.1684 22.8484 14.7852 22.8484 16.4711C22.8484 18.157 22.1786 19.7738 20.9865 20.9659C19.7944 22.158 18.1776 22.8278 16.4917 22.8278ZM23.1014 11.3616C22.9066 11.3618 22.7138 11.3236 22.5339 11.2492C22.354 11.1747 22.1905 11.0656 22.0528 10.9279C21.9152 10.7902 21.806 10.6267 21.7316 10.4468C21.6571 10.2669 21.6189 10.0741 21.6191 9.87938C21.6191 9.68482 21.6574 9.49216 21.7319 9.31241C21.8063 9.13266 21.9155 8.96933 22.053 8.83175C22.1906 8.69418 22.3539 8.58505 22.5337 8.51059C22.7134 8.43614 22.9061 8.39781 23.1007 8.39781C23.2952 8.39781 23.4879 8.43614 23.6676 8.51059C23.8474 8.58505 24.0107 8.69418 24.1483 8.83175C24.2859 8.96933 24.395 9.13266 24.4694 9.31241C24.5439 9.49216 24.5822 9.68482 24.5822 9.87938C24.5822 10.6989 23.9195 11.3616 23.1014 11.3616Z" fill="white"/>
<path d="M16.4918 20.6003C18.7722 20.6003 20.6209 18.7516 20.6209 16.4712C20.6209 14.1907 18.7722 12.342 16.4918 12.342C14.2113 12.342 12.3627 14.1907 12.3627 16.4712C12.3627 18.7516 14.2113 20.6003 16.4918 20.6003Z" fill="white"/>
</svg>
