<svg width="22" height="27" viewBox="0 0 22 27" fill="none" xmlns="http://www.w3.org/2000/svg">
<path d="M21.7008 22.9074L17.4165 17.782C17.2231 17.5507 16.961 17.4222 16.686 17.4222H15.9855C17.1716 15.6075 17.8763 13.325 17.8763 10.842C17.8763 4.93521 13.8756 0.149139 8.93815 0.149139C4.00068 0.149139 0 4.93521 0 10.842C0 16.7487 4.00068 21.5348 8.93815 21.5348C11.0137 21.5348 12.9216 20.6917 14.4386 19.2728V20.1108C14.4386 20.4398 14.546 20.7534 14.7394 20.9847L19.0237 26.1101C19.4276 26.5933 20.0808 26.5933 20.4804 26.1101L21.6965 24.6552C22.1004 24.172 22.1004 23.3906 21.7008 22.9074ZM8.93815 17.4222C5.90004 17.4222 3.43775 14.4816 3.43775 10.842C3.43775 7.20743 5.89574 4.26176 8.93815 4.26176C11.9763 4.26176 14.4386 7.20229 14.4386 10.842C14.4386 14.4765 11.9806 17.4222 8.93815 17.4222Z" fill="white"/>
</svg>
