<svg width="30" height="30" viewBox="0 0 30 30" fill="none" xmlns="http://www.w3.org/2000/svg">
<g clip-path="url(#clip0_14_115)">
<path d="M29.375 8.13385C29.2052 7.52788 28.8743 6.97928 28.4175 6.54634C27.9479 6.1001 27.3723 5.78089 26.745 5.61884C24.3975 5.00009 14.9925 5.0001 14.9925 5.0001C11.0717 4.95549 7.15182 5.15169 3.25504 5.58759C2.62778 5.76161 2.05324 6.08795 1.58254 6.5376C1.12004 6.9826 0.785039 7.53135 0.610039 8.1326C0.189655 10.3973 -0.0145959 12.6968 3.9057e-05 15.0001C-0.0149609 17.3013 0.188789 19.6001 0.610039 21.8676C0.781289 22.4663 1.11504 23.0126 1.57879 23.4538C2.04254 23.8951 2.62004 24.2138 3.25504 24.3826C5.63379 25.0001 14.9925 25.0001 14.9925 25.0001C18.9184 25.0448 22.8432 24.8486 26.745 24.4126C27.3723 24.2506 27.9479 23.9313 28.4175 23.4851C28.8741 23.0522 29.2046 22.5036 29.3738 21.8976C29.8051 19.6338 30.0149 17.3333 30 15.0288C30.0325 12.7146 29.823 10.4033 29.375 8.1326V8.13385ZM12.0025 19.2801V10.7213L19.8275 15.0013L12.0025 19.2801Z" fill="white"/>
</g>
<defs>
<clipPath id="clip0_14_115">
<rect width="30" height="30" fill="white"/>
</clipPath>
</defs>
</svg>
